HIERARCHY
ROOT Hips
{
	OFFSET 0.000000 0.000000 0.000000
	CHANNELS 6 Xposition Yposition Zposition Xrotation Yrotation Zrotation
	JOINT LeftUpLeg_virtual
	{
		OFFSET 0.000000 0.000000 0.000000
		CHANNELS 3 Xrotation Yrotation Zrotation
		JOINT LeftUpLeg
		{
			OFFSET 10.205400 -3.823500 0.155100
			CHANNELS 3 Xrotation Yrotation Zrotation
			JOINT LeftLeg
			{
				OFFSET 0.708757 -12.982077 0.567790
				CHANNELS 3 Xrotation Yrotation Zrotation
				JOINT LeftFoot
				{
					OFFSET -0.708756 -10.717838 -2.184338
					CHANNELS 3 Xrotation Yrotation Zrotation
					JOINT LeftToeBase
					{
						OFFSET 0.108149 -7.191104 7.560241
						CHANNELS 3 Xrotation Yrotation Zrotation
						JOINT LeftToe_End
						{
							OFFSET 0.070230 0.081724 4.490308
							CHANNELS 3 Xrotation Yrotation Zrotation
							End Site
							{
								OFFSET 0 0 0
							}
						}
					}
				}
			}
		}
	}
	JOINT RightUpLeg_virtual
	{
		OFFSET 0.000000 0.000000 0.000000
		CHANNELS 3 Xrotation Yrotation Zrotation
		JOINT RightUpLeg
		{
			OFFSET -10.205400 -3.823500 0.005500
			CHANNELS 3 Xrotation Yrotation Zrotation
			JOINT RightLeg
			{
				OFFSET -0.708756 -12.982134 0.610632
				CHANNELS 3 Xrotation Yrotation Zrotation
				JOINT RightFoot
				{
					OFFSET 0.708754 -10.717769 -1.945823
					CHANNELS 3 Xrotation Yrotation Zrotation
					JOINT RightToeBase
					{
						OFFSET -0.108140 -7.191069 7.372968
						CHANNELS 3 Xrotation Yrotation Zrotation
						JOINT RightToe_End
						{
							OFFSET -0.070227 0.081735 4.479403
							CHANNELS 3 Xrotation Yrotation Zrotation
							End Site
							{
								OFFSET 0 0 0
							}
						}
					}
				}
			}
		}
	}
	JOINT Spine_virtual
	{
		OFFSET 0.000000 0.000000 0.000000
		CHANNELS 3 Xrotation Yrotation Zrotation
		JOINT Spine
		{
			OFFSET 0.000000 6.876099 0.125700
			CHANNELS 3 Xrotation Yrotation Zrotation
			JOINT Spine1
			{
				OFFSET 0.000000 5.730043 0.104720
				CHANNELS 3 Xrotation Yrotation Zrotation
				JOINT Spine1_split
				{
					OFFSET 0.000000 5.730043 0.104720
					CHANNELS 3 Xrotation Yrotation Zrotation
					JOINT Spine2
					{
						OFFSET 0.000000 5.730043 0.104720
						CHANNELS 3 Xrotation Yrotation Zrotation
						JOINT Neck_virtual
						{
							OFFSET 0.000000 0.000000 0.000000
							CHANNELS 3 Xrotation Yrotation Zrotation
							JOINT Neck
							{
								OFFSET 0.000000 10.314075 0.188496
								CHANNELS 3 Xrotation Yrotation Zrotation
								JOINT Head
								{
									OFFSET 0.000000 7.643700 -2.377400
									CHANNELS 3 Xrotation Yrotation Zrotation
									JOINT HeadTop_End
									{
										OFFSET 0.000000 43.788605 -13.619600
										CHANNELS 3 Xrotation Yrotation Zrotation
										End Site
										{
											OFFSET 0 0 0
										}
									}
								}
							}
						}
						JOINT LeftShoulder_virtual
						{
							OFFSET 0.000000 0.000000 0.000000
							CHANNELS 3 Xrotation Yrotation Zrotation
							JOINT LeftShoulder
							{
								OFFSET 2.196100 4.412489 0.087492
								CHANNELS 3 Xrotation Yrotation Zrotation
								JOINT LeftShoulder_split
								{
									OFFSET 2.196100 4.412489 0.087492
									CHANNELS 3 Xrotation Yrotation Zrotation
									JOINT LeftArm
									{
										OFFSET 8.771219 -2.981674 -0.026999
										CHANNELS 3 Xrotation Yrotation Zrotation
										JOINT LeftForeArm
										{
											OFFSET 8.512804 0.000000 -0.000000
											CHANNELS 3 Xrotation Yrotation Zrotation
											JOINT LeftHand
											{
												OFFSET 18.484802 0.000000 -0.000000
												CHANNELS 3 Xrotation Yrotation Zrotation
												End Site
												{
													OFFSET 0 0 0
												}
											}
										}
									}
								}
							}
						}
						JOINT RightShoulder_virtual
						{
							OFFSET 0.000000 0.000000 0.000000
							CHANNELS 3 Xrotation Yrotation Zrotation
							JOINT RightShoulder
							{
								OFFSET -2.196100 4.412496 0.070690
								CHANNELS 3 Xrotation Yrotation Zrotation
								JOINT RightShoulder_split
								{
									OFFSET -2.196100 4.412496 0.070690
									CHANNELS 3 Xrotation Yrotation Zrotation
									JOINT RightArm
									{
										OFFSET -8.771282 -2.981682 -0.094208
										CHANNELS 3 Xrotation Yrotation Zrotation
										JOINT RightForeArm
										{
											OFFSET -8.494598 0.000000 0.000000
											CHANNELS 3 Xrotation Yrotation Zrotation
											JOINT RightHand
											{
												OFFSET -18.483803 0.000000 0.000001
												CHANNELS 3 Xrotation Yrotation Zrotation
												End Site
												{
													OFFSET 0 0 0
												}
											}
										}
									}
								}
							}
						}
					}
				}
			}
		}
	}
}
MOTION
Frames: 9
Frame Time: 0.03333333
-0.191669 70.247948 0.847380 0.000000 0.000000 0.000000 -4.759785 6.826967 6.672521 -8.437681 18.499926 11.682095 10.605979 -4.904495 -2.473931 -20.448494 0.122128 -3.122615 -1.956214 -0.468128 -1.760252 0.000000 0.000000 0.000000 -3.043473 2.828410 5.766987 5.915093 -4.787498 -9.291562 11.033466 6.210329 4.757330 -28.677174 -5.368715 4.421040 -8.678805 -0.361626 -3.217629 0.000000 0.000000 0.000000 -0.502529 3.116611 5.141695 2.013727 -1.208307 1.814195 10.535812 -0.734454 3.745369 1.512419 1.603229 0.266251 0.000000 0.000000 0.000000 9.616329 -0.908374 3.187132 0.327565 0.380454 -4.254789 7.954601 8.477492 -7.774115 0.000000 0.000000 0.000000 11.132303 -0.986842 2.942021 0.202216 16.189630 -8.717816 -0.865546 -1.844324 -0.801860 1.314019 -12.573227 -60.614910 -0.660429 -48.216259 0.483570 0.000000 0.000000 0.000000 11.267072 -0.454194 3.427603 2.274275 2.631340 7.636823 0.437501 0.829904 -1.083373 -1.872153 7.843323 56.749088 1.582281 38.435117 -1.579185 0.000000 0.000000 0.000000 
-0.263947 70.244675 0.784134 0.000000 0.000000 0.000000 -4.663514 7.074700 6.560919 -8.796848 18.064807 11.831789 10.690186 -4.466630 -2.226957 -20.438241 0.414916 -2.997902 -2.007606 -0.463965 -1.935870 0.000000 0.000000 0.000000 -2.855639 3.027271 5.569332 5.801081 -4.999979 -9.104685 10.558692 6.116028 4.793298 -28.422615 -5.496483 4.326958 -8.766917 -0.395447 -3.089788 0.000000 0.000000 0.000000 -0.363829 2.838855 5.147399 1.992771 -1.258342 1.791758 10.602920 -0.752683 3.651471 1.136622 1.475560 0.013353 0.000000 0.000000 0.000000 9.611265 -0.911164 3.127242 -0.184434 0.392925 -4.466770 8.038709 8.163136 -7.609681 0.000000 0.000000 0.000000 11.153259 -0.960800 2.852353 0.193386 16.044219 -8.257486 -1.202461 -1.298278 -0.963917 0.675414 -12.688459 -60.623427 -0.749348 -48.267656 0.307066 0.000000 0.000000 0.000000 11.331961 -0.496096 3.329818 2.211906 2.497473 7.588860 0.156441 0.635301 -0.923642 -1.997917 7.983228 56.576861 1.505643 39.999999 -1.428426 0.000000 0.000000 0.000000 
-0.350158 70.176140 0.704865 0.000000 0.000000 0.000000 -4.307872 7.245365 6.330332 -9.616491 17.684436 12.012574 11.212316 -3.729907 -1.965153 -20.989407 1.079848 -2.440935 -2.342975 -0.460043 -1.859415 0.000000 0.000000 0.000000 -2.343079 3.142488 5.310473 5.207477 -5.143399 -8.830608 10.832561 6.178594 4.808284 -28.895788 -5.597481 4.433491 -9.167535 -0.386288 -2.982819 0.000000 0.000000 0.000000 0.120347 2.550642 5.103510 2.029311 -1.118711 1.843047 10.660972 -0.740790 3.513423 0.889739 1.185294 -0.164072 0.000000 0.000000 0.000000 9.680005 -0.881171 3.013202 -0.951681 0.452120 -4.721829 7.517711 7.551299 -7.083868 0.000000 0.000000 0.000000 11.062889 -0.907453 2.740790 0.123867 15.752482 -7.531303 -1.464240 -0.945145 -1.117784 0.009955 -12.847281 -60.575664 -0.535310 -48.789288 0.275299 0.000000 0.000000 0.000000 11.367920 -0.518674 3.181979 2.153901 2.426140 7.313737 -0.184909 0.151881 -0.737021 -1.405789 9.248504 55.974384 1.493276 42.237166 -1.283129 0.000000 0.000000 0.000000 
-0.418131 70.046181 0.584295 0.000000 0.000000 0.000000 -3.775641 7.404750 6.047367 -10.938241 17.268803 11.981642 12.353300 -2.918532 -1.718231 -21.973690 1.893900 -1.702950 -2.739476 -0.458531 -1.549459 0.000000 0.000000 0.000000 -1.674472 3.276300 5.044444 4.262450 -5.123605 -8.554770 11.671798 6.269552 4.714308 -30.363893 -5.687374 4.528777 -9.499635 -0.355701 -2.954866 0.000000 0.000000 0.000000 0.910345 2.400131 5.031143 2.111537 -0.864025 1.949584 10.729256 -0.750565 3.379964 0.782157 0.861150 -0.349411 0.000000 0.000000 0.000000 9.835054 -0.873748 2.873320 -1.815234 0.532771 -4.947478 6.425593 6.764385 -6.296537 0.000000 0.000000 0.000000 10.927600 -0.879699 2.628998 0.016693 15.287215 -6.712018 -1.526443 -0.869203 -1.251138 -0.754030 -13.030158 -60.325406 -0.162514 -49.518745 0.302226 0.000000 0.000000 0.000000 11.351481 -0.561435 3.021918 2.087430 2.510664 6.911380 -0.372367 -0.420580 -0.685810 -0.166803 11.426648 54.937554 1.555017 44.877881 -1.173374 0.000000 0.000000 0.000000 
-0.412294 69.881477 0.409714 0.000000 0.000000 0.000000 -3.173780 7.731802 5.808526 -12.839458 16.807735 11.565865 14.224243 -2.361978 -1.521884 -23.021390 2.622155 -1.332532 -2.913549 -0.461196 -1.079725 0.000000 0.000000 0.000000 -1.043811 3.468650 4.865577 3.252193 -4.904021 -8.390282 12.836934 6.200092 4.509381 -32.625078 -5.775145 4.399823 -9.256398 -0.288683 -2.996370 0.000000 0.000000 0.000000 1.881269 2.559848 4.965457 2.237856 -0.629675 2.048584 10.829425 -0.842933 3.281802 0.733557 0.610055 -0.416681 0.000000 0.000000 0.000000 10.071951 -0.948891 2.759174 -2.566409 0.611790 -5.052693 4.933164 5.896766 -5.383346 0.000000 0.000000 0.000000 10.835209 -0.931396 2.538584 -0.073579 14.644675 -5.937096 -1.252189 -0.824918 -1.308441 -1.433617 -13.303594 -59.665077 0.203922 -50.473616 0.316176 0.000000 0.000000 0.000000 11.311661 -0.679414 2.900224 1.999319 2.801666 6.453090 -0.456174 -0.982330 -0.895947 1.655811 14.265262 53.393897 1.661156 47.851233 -1.110979 0.000000 0.000000 0.000000 
-0.330424 69.711479 0.259470 0.000000 0.000000 0.000000 -2.584674 8.371880 5.717354 -15.313007 16.409504 10.658020 16.787063 -2.211476 -1.434428 -23.720245 3.118654 -1.620483 -2.851112 -0.459164 -0.507661 0.000000 0.000000 0.000000 -0.464956 3.787256 4.825097 2.341160 -4.556873 -8.411050 13.981316 5.905636 4.278735 -34.988208 -5.884901 4.143198 -8.512595 -0.177808 -3.082999 0.000000 0.000000 0.000000 2.895002 3.160440 4.919979 2.325346 -0.546447 2.104553 10.993141 -1.052166 3.251218 0.821596 0.542530 -0.230915 0.000000 0.000000 0.000000 10.390926 -1.127472 2.698129 -3.071456 0.694178 -5.035712 3.199105 4.996899 -4.484867 0.000000 0.000000 0.000000 10.875515 -1.087964 2.493457 -0.097944 13.809737 -5.391163 -0.851085 -0.625647 -1.190663 -1.882017 -13.566216 -58.465135 0.446497 -51.638747 0.280553 0.000000 0.000000 0.000000 11.306284 -0.885208 2.846746 1.911002 3.279082 5.993694 -0.190993 -1.227043 -1.386334 3.861938 17.356776 51.266628 1.747624 51.401897 -1.053677 0.000000 0.000000 0.000000 
-0.230878 69.575958 0.173904 0.000000 0.000000 0.000000 -2.026947 9.165430 5.815557 -18.071120 16.202399 9.393790 19.624272 -2.365273 -1.460488 -23.890520 3.307828 -2.267327 -2.668974 -0.458965 0.116334 0.000000 0.000000 0.000000 0.132257 4.256787 4.942941 1.542281 -4.214984 -8.656641 14.708594 5.447504 4.133671 -36.693303 -6.016004 4.205025 -8.108403 -0.001595 -3.200661 0.000000 0.000000 0.000000 3.818372 4.127097 4.873575 2.388769 -0.668363 2.075861 11.269917 -1.360153 3.293758 1.035745 0.236048 0.070156 0.000000 0.000000 0.000000 10.828529 -1.403531 2.717075 -3.284632 0.749421 -4.951809 1.346566 4.024514 -3.660333 0.000000 0.000000 0.000000 11.111382 -1.343322 2.522167 -0.081377 12.822672 -5.073623 -0.343851 -0.197038 -0.848662 -2.043349 -13.773390 -56.832833 0.535463 -53.241550 0.257487 0.000000 0.000000 0.000000 11.399858 -1.185423 2.876970 1.813195 3.767845 5.532091 0.376828 -1.221806 -1.913780 6.100952 20.423089 48.686808 1.802341 55.744401 -1.043100 0.000000 0.000000 0.000000 
-0.093930 69.491455 0.138617 0.000000 0.000000 0.000000 -1.415274 9.942310 6.041017 -20.699691 16.367541 7.927922 22.194778 -2.593789 -1.611180 -23.957276 3.150100 -2.613710 -2.307049 -0.487144 0.696115 0.000000 0.000000 0.000000 0.955214 4.868123 5.112899 0.947352 -4.012232 -9.039669 14.709272 4.939425 4.077256 -37.514076 -6.162901 4.697004 -8.482907 0.233340 -3.304732 0.000000 0.000000 0.000000 4.616819 5.232391 4.809939 2.453345 -0.940659 1.940675 11.705621 -1.667379 3.404961 1.148349 -0.121807 0.240928 0.000000 0.000000 0.000000 11.444612 -1.691390 2.838830 -3.233793 0.754185 -4.849083 -0.555435 3.020520 -2.956408 0.000000 0.000000 0.000000 11.606733 -1.611060 2.633262 -0.043047 11.760365 -4.953112 0.100479 0.317400 -0.299081 -1.779598 -14.033130 -55.032354 0.584171 -55.470333 0.327483 0.000000 0.000000 0.000000 11.729938 -1.514859 2.988391 1.724112 4.168412 4.970525 0.810697 -1.021019 -2.396821 8.209075 23.238431 45.752405 1.717384 60.721174 -0.967829 0.000000 0.000000 0.000000 
0.039448 69.462738 0.126024 0.000000 0.000000 0.000000 -0.708557 10.558282 6.280187 -22.843394 16.855549 6.461221 23.901156 -2.621155 -1.887620 -24.302168 2.660322 -2.064793 -2.091079 -0.541267 1.278773 0.000000 0.000000 0.000000 2.067950 5.527664 5.243707 0.633613 -4.086179 -9.347784 14.079970 4.276344 4.075930 -37.926248 -6.304588 5.172623 -8.942526 0.450088 -3.309423 0.000000 0.000000 0.000000 5.405237 6.165374 4.685157 2.532647 -1.256530 1.699851 12.330858 -1.854965 3.560083 0.956913 -0.310740 0.159939 0.000000 0.000000 0.000000 12.234601 -1.889756 3.041026 -3.143420 0.694242 -4.813592 -2.527357 2.022658 -2.334557 0.000000 0.000000 0.000000 12.351187 -1.782975 2.812054 0.000074 10.699832 -4.915989 0.546656 0.604723 0.178190 -1.280321 -14.298548 -53.389263 0.741022 -58.049764 0.528905 0.000000 0.000000 0.000000 12.357249 -1.766834 3.153473 1.668783 4.397726 4.345866 0.925114 -0.655871 -2.820599 9.983016 25.691039 42.630626 1.443111 65.728522 -0.765385 0.000000 0.000000 0.000000 
